:SAMPLES-PER-SECOND 30
:FULLY-SPECIFIED
:DEGREES
169
root  -8.22342 23.1461 -2.02399 83.3274 -46.4623 -16.381
RightUpLeg  -124.246 -22.3189 50.0442
RightLeg  97.3827 -0.696052 6.27729
RightFoot  -41.4923 0.624916 3.37843
RightToes  -1.16417e-010 0 -3.6325e-017
Spine  -30.0012 -0.223617 36.5002
Spine1  23.0654 -10.1072 -23.1603
HEad  -31.1852 -36.057 -5.84607
LeftShoulder1  0.461247 0.89322 -10.3679
LeftArm  -36.2851 -34.5851 -24.809
LeftForeArm  27.4644 -64.4862 -21.3068
LeftHand  0.00361647 6.67151 3.2886
RightShoulder  -0.206876 -4.17591 23.2509
RightArm  -6.25164 7.26173 47.1446
RightForeArm  107.386 74.3526 134.496
RightHand  -0.0244326 6.71969 -0.556674
LeftUpLeg  -139.029 12.4298 35.3434
LeftLeg  93.8008 0.970087 -11.8843
LeftFoot  -23.6956 -0.210226 -3.25733
LeftToes  1.47335e-010 -1.29615e-010 3.08757e-011
170
root  -8.39039 22.6677 -2.00594 86.5421 -46.1592 -16.508
RightUpLeg  -126.987 -19.9024 52.0294
RightLeg  98.743 -0.643906 5.20277
RightFoot  -41.9448 0.783557 3.91805
RightToes  -1.16417e-010 0 -3.6325e-017
Spine  -31.0896 1.47491 39.0792
Spine1  20.529 -9.96648 -24.1613
HEad  -30.4911 -36.4038 -6.65173
LeftShoulder1  0.479285 0.816002 -10.5519
LeftArm  -36.1775 -36.1306 -22.9977
LeftForeArm  24.9525 -61.4576 -18.6286
LeftHand  0.00239776 6.33022 3.93905
RightShoulder  -0.135576 -3.94013 22.9653
RightArm  -9.18512 8.40084 46.1868
RightForeArm  95.9829 76.4836 123.617
RightHand  -0.231477 7.58767 -2.44248
LeftUpLeg  -142.358 14.5928 34.9812
LeftLeg  95.0467 1.27472 -12.2137
LeftFoot  -24.1381 -0.222878 -3.27794
LeftToes  1.47335e-010 -1.29615e-010 3.08757e-011
171
root  -8.48186 22.2042 -1.99005 88.5491 -45.5686 -17.7115
RightUpLeg  -127.78 -18.5967 53.3903
RightLeg  100.202 -0.551794 4.16852
RightFoot  -42.5835 0.965312 4.49872
RightToes  -1.16417e-010 0 -3.6325e-017
Spine  -27.9576 2.06196 42.5988
Spine1  16.3176 -9.69215 -24.8219
HEad  -30.33 -37.4587 -6.88912
LeftShoulder1  0.481196 0.815997 -10.6309
LeftArm  -36.4361 -39.0775 -21.498
LeftForeArm  23.4083 -58.1607 -16.1648
LeftHand  -0.00492118 6.15883 3.71701
RightShoulder  -0.188952 -4.12782 22.726
RightArm  -11.6574 10.1623 45.2014
RightForeArm  79.8974 78.0593 108.54
RightHand  -0.346951 7.50892 -3.48792
LeftUpLeg  -143.962 16.3806 35.8306
LeftLeg  96.7435 1.65309 -12.2365
LeftFoot  -24.6521 -0.275164 -3.62486
LeftToes  1.47335e-010 -1.29615e-010 3.08757e-011
172
root  -8.70467 21.7881 -2.15534 91.3063 -45.4482 -17.5121
RightUpLeg  -129.857 -15.9798 54.2201
RightLeg  101.502 -0.324262 2.81389
RightFoot  -43.5418 1.15413 5.03749
RightToes  -1.16417e-010 0 -3.6325e-017
Spine  -34.7468 3.81686 39.9369
Spine1  20.1458 -9.34247 -22.9652
HEad  -30.0972 -38.3226 -6.97044
LeftShoulder1  0.490043 0.805308 -10.9139
LeftArm  -36.7525 -41.5392 -19.8612
LeftForeArm  21.2299 -55.4935 -14.6278
LeftHand  -0.00400381 6.32006 3.20872
RightShoulder  -0.202344 -4.18795 22.0289
RightArm  -13.8058 11.4188 45.1047
RightForeArm  64.0407 78.6425 92.6339
RightHand  -0.433111 6.91434 -4.42271
LeftUpLeg  -147.019 18.491 35.0671
LeftLeg  97.6439 1.89959 -12.5141
LeftFoot  -25.127 -0.321281 -3.90789
LeftToes  1.47335e-010 -1.29615e-010 3.08757e-011
173
root  -9.30298 21.4724 -2.55368 99.8846 -48.8567 -13.1992
RightUpLeg  -138.525 -7.02051 52.6878
RightLeg  101.518 0.165663 0.794217
RightFoot  -44.0785 1.28925 5.4234
RightToes  -1.16417e-010 0 -3.6325e-017
Spine  -68.027 9.22595 26.581
Spine1  41.1291 -7.20911 -21.8362
HEad  -29.6275 -38.7345 -7.25127
LeftShoulder1  0.511436 0.715112 -11.1165
LeftArm  -36.8111 -42.9501 -17.6015
LeftForeArm  19.4722 -53.611 -13.705
LeftHand  0.00284334 6.49735 3.55428
RightShoulder  -0.110031 -3.87132 21.593
RightArm  -15.2959 12.8315 45.0249
RightForeArm  46.4038 78.2506 74.5198
RightHand  -0.456505 7.30503 -4.5577
LeftUpLeg  -156.839 22.3498 27.8302
LeftLeg  96.2327 1.56177 -12.3721
LeftFoot  -25.8167 -0.299724 -3.58108
LeftToes  1.47335e-010 -1.29615e-010 3.08757e-011
174
root  -9.48812 21.2731 -2.60143 98.0116 -49.5251 -11.0845
RightUpLeg  -139.563 -7.90786 52.8922
RightLeg  102.744 0.219278 0.503167
RightFoot  -45.0258 1.35161 5.49288
RightToes  -1.16417e-010 0 -3.6325e-017
Spine  -70.3437 7.286 24.2831
Spine1  42.9817 -8.43012 -20.4614
HEad  -29.1067 -39.6159 -7.94058
LeftShoulder1  0.521918 0.670295 -11.2018
LeftArm  -36.8306 -45.0002 -16.2801
LeftForeArm  19.1904 -52.1292 -12.9481
LeftHand  -0.00317841 6.26249 3.54702
RightShoulder  -0.145071 -3.99944 21.357
RightArm  -16.3587 14.5646 44.7245
RightForeArm  31.0776 76.8749 59.2739
RightHand  -0.429375 8.52734 -3.96665
LeftUpLeg  -156.896 21.6458 28.3442
LeftLeg  96.9665 1.57873 -11.529
LeftFoot  -26.1961 -0.323535 -3.68641
LeftToes  1.47335e-010 -1.29615e-010 3.08757e-011
175
root  -9.52387 20.7157 -2.82801 111.978 -49.754 -15.0366
RightUpLeg  -145.852 0.678527 49.5975
RightLeg  102.254 0.134751 1.12209
RightFoot  -44.9797 1.28866 5.25601
RightToes  -1.16417e-010 0 -3.6325e-017
Spine  -79.8936 12.9115 24.7561
Spine1  40.818 -4.816 -22.0069
HEad  -28.6982 -39.7529 -8.55578
LeftShoulder1  0.552432 0.556445 -11.5648
LeftArm  -37.2434 -46.6772 -13.7487
LeftForeArm  18.455 -50.7971 -12.3516
LeftHand  -0.00821135 6.1056 3.47211
RightShoulder  -0.115991 -3.90713 20.5819
RightArm  -17.1 16.001 45.3994
RightForeArm  20.4931 75.249 49.9923
RightHand  -0.599717 7.49131 -5.74116
LeftUpLeg  -168.277 25.4779 21.8846
LeftLeg  98.1077 1.6445 -10.2105
LeftFoot  -27.1909 -0.457119 -4.46709
LeftToes  1.47335e-010 -1.29615e-010 3.08757e-011
176
root  -9.80339 20.1477 -3.67795 166.698 -54.6629 -25.002
RightUpLeg  -172.066 36.6685 35.3404
RightLeg  93.852 0.0868397 2.30998
RightFoot  -41.5725 0.864336 4.26402
RightToes  -1.16417e-010 0 -3.6325e-017
Spine  -143.638 30.1643 9.24955
Spine1  56.9494 9.60997 -24.6109
HEad  -28.8075 -39.7772 -8.42224
LeftShoulder1  0.568754 0.48206 -11.6513
LeftArm  -37.4687 -48.3779 -12.6949
LeftForeArm  18.2752 -49.922 -11.9556
LeftHand  -0.00427198 6.50225 2.85962
RightShoulder  -0.10784 -3.87973 20.3766
RightArm  -17.3525 17.3364 45.4027
RightForeArm  14.5663 73.6281 43.2757
RightHand  -0.486426 7.76381 -4.65106
LeftUpLeg  146.91 37.9546 -9.95618
LeftLeg  95.2001 0.491991 -6.11787
LeftFoot  -29.63 -0.524548 -4.36495
LeftToes  1.47335e-010 -1.29615e-010 3.08757e-011
177
root  -9.86375 19.6623 -3.62434 155.048 -54.4969 -24.5472
RightUpLeg  -166.127 28.9173 38.1042
RightLeg  98.1134 0.239167 0.536197
RightFoot  -43.0785 1.18732 5.22162
RightToes  -1.16417e-010 0 -3.6325e-017
Spine  -126.153 28.983 14.5258
Spine1  50.9502 7.81495 -25.2972
HEad  -28.3569 -39.667 -9.32323
LeftShoulder1  0.600376 0.323886 -11.7167
LeftArm  -37.8826 -49.6023 -11.1621
LeftForeArm  18.1573 -49.4506 -11.7536
LeftHand  -0.00661471 6.49027 2.68431
RightShoulder  -0.09119 -3.81931 20.2677
RightArm  -17.3279 18.488 46.1103
RightForeArm  10.2211 72.2014 38.8881
RightHand  -0.509961 8.43372 -4.64962
LeftUpLeg  156.863 38.5279 -2.82245
LeftLeg  98.2609 0.848109 -6.13778
LeftFoot  -29.3205 -0.575904 -4.75356
LeftToes  1.47335e-010 -1.29615e-010 3.08757e-011
178
root  -9.9576 19.4884 -3.73072 155.057 -55.0634 -23.0849
RightUpLeg  -168.199 28.885 37.0475
RightLeg  98.998 0.383907 -0.227888
RightFoot  -43.7269 1.22321 5.24967
RightToes  -1.16417e-010 0 -3.6325e-017
Spine  -129.225 27.2253 13.3379
Spine1  52.1852 6.70493 -24.5948
HEad  -27.8358 -40.1508 -9.93641
LeftShoulder1  0.62181 0.224595 -11.8084
LeftArm  -37.9118 -51.5363 -10.8454
LeftForeArm  18.3195 -48.7276 -11.42
LeftHand  -0.00819809 6.4679 2.6048
RightShoulder  -0.0984692 -3.84994 19.9907
RightArm  -17.4125 18.8749 46.3871
RightForeArm  8.65834 71.4696 36.9374
RightHand  -0.49852 8.27951 -4.60908
LeftUpLeg  155.652 38.3027 -2.90777
LeftLeg  98.7381 0.69897 -5.04715
LeftFoot  -29.339 -0.560238 -4.64961
LeftToes  1.47335e-010 -1.29615e-010 3.08757e-011
179
root  -10.0656 19.4812 -3.88402 158.058 -55.4725 -21.3457
RightUpLeg  -171.99 30.843 35.1542
RightLeg  98.6279 0.474106 -0.673243
RightFoot  -44.2076 1.23224 5.20898
RightToes  -1.16417e-010 0 -3.6325e-017
Spine  -137.703 25.2891 10.7279
Spine1  55.4205 5.54458 -23.9496
HEad  -27.8825 -40.2667 -10.5945
LeftShoulder1  0.641286 0.116228 -11.775
LeftArm  -37.7773 -52.4042 -10.3739
LeftForeArm  18.1 -48.6053 -11.3846
LeftHand  -0.0136969 5.98967 2.88111
RightShoulder  -0.0726401 -3.75256 19.9908
RightArm  -16.8571 19.1691 46.9304
RightForeArm  8.0742 71.4123 36.8858
RightHand  -0.632417 7.40055 -6.07122
LeftUpLeg  151.579 37.8245 -4.98272
LeftLeg  98.2559 0.423716 -3.81842
LeftFoot  -29.6526 -0.591024 -4.77074
LeftToes  1.47335e-010 -1.29615e-010 3.08757e-011
180
root  -10.0937 19.2149 -3.96571 156.195 -55.5474 -22.0694
RightUpLeg  -171.077 29.3619 34.825
RightLeg  100.146 0.748899 -1.88269
RightFoot  -44.6453 1.37103 5.61265
RightToes  -1.16417e-010 0 -3.6325e-017
Spine  -132.145 25.4027 12.2622
Spine1  52.5178 5.24686 -23.8373
HEad  -27.872 -40.1941 -11.4353
LeftShoulder1  0.665923 -0.020642 -11.7339
LeftArm  -37.6657 -53.2363 -10.667
LeftForeArm  18.7343 -48.89 -11.4593
LeftHand  -0.02521 5.48505 2.53603
RightShoulder  -0.0940066 -3.83309 20.0152
RightArm  -16.3277 19.3778 47.4968
RightForeArm  9.38834 71.5903 37.1669
RightHand  -0.526795 6.80283 -5.35477
LeftUpLeg  153.282 38.9416 -3.67537
LeftLeg  99.6753 0.342022 -2.95679
LeftFoot  -29.2912 -0.488129 -4.20669
LeftToes  1.47335e-010 -1.29615e-010 3.08757e-011
